# xmcd
#
# Track frame offsets: 
#        150
#        57172
#        91537
#        138142
#
# Disc length: 3282 seconds
#
# Revision: 0
# Processed by: cddbd v1.5.2PL0 Copyright (c) Steve Scherf et al.
# Submitted via: ExactAudioCopy v1.0b3
#
DISCID=240cd004
DTITLE=Björn J:son Lindh, Torbjörn Carlsson, Stefan Blomquist, Dan Mag
DTITLE=nusson - Blommorna [CD 1)
DYEAR=2013
DGENRE=Jazz
TTITLE0=Blomma 1
TTITLE1=Blomma 2
TTITLE2=Blomma 3
TTITLE3=Blomma 4
EXTD=
EXTT0=
EXTT1=
EXTT2=
EXTT3=
PLAYORDER=
